<svg xmlns="http://www.w3.org/2000/svg" viewBox="0 0 512 512" enable-background="new 0 0 512 512"><circle cx="256" cy="256" r="256" fill="#E1EFFA"/><path d="M504.492 317.586l-130.012-130.01c-.044-.092-.133-.179-.261-.266l-.532-.53c-.842-.622-2.074-.929-3.758-.929-5.78 0-16.765 3.392-31.24 9.334l-.013-.008-74.739-74.747-.041-.046c-.515-1.183-.934-1.196-1.196-1.196-.886 0-3.231 0-5.217 40.356-.182 3.141-.358 6.367-.492 9.728v.044l-.968-.044c-11.013 0-21.491 2.122-31.117 5.837h-.046l-.62.264c-1.014.399-2.079.794-3.052 1.239-.264.084-.53.177-.791.31-1.595.717-3.174 1.516-4.733 2.342v-.003l-.532.266c-.612.31-1.193.668-1.812 1.019-.883.527-1.861 1.014-2.739 1.59l-1.329.883c-1.777 1.152-3.512 2.365-5.197 3.63-.517.387-1.006.801-1.51 1.201-.832.653-1.69 1.288-2.486 1.976l-.507.474c-4.032 3.469-7.729 7.299-11.057 11.438l-.059.067-.056-.02.056-.069c-21.883-9.946-38.679-15.864-46.318-15.864-2.396 0-3.901.576-4.559 1.728-.154.261-.241.55-.302.863l-.013.205c-.015.253-.015.512.013.794l.059.276c.049.276.131.568.228.873l.1.264c.136.361.305.742.517 1.126l.038.079c.689 1.283 1.697 2.701 2.985 4.221l.174.177.092.087c2.004 2.324 4.613 4.882 7.572 7.529l.069.074 10.301 10.345.077.082c-.463 1.016-.783 2.109-.783 3.32 0 .717.123 1.393.292 2.058l.123.394c.614 1.91 1.871 3.507 3.558 4.526l9.464 9.464.049.056c-1.802 6.904-2.834 14.106-2.834 21.56 0 11.087 2.122 21.614 5.962 31.378-2.998 2.127-6.141 4.419-8.835 6.421-14.804 11.131-31.867 25.457-28.908 30.628l.837.835 179.256 179.259c91.871-22.72 164.145-95.02 186.842-186.888z" fill="#BCD4E8"/><path d="M342.692 255.987c0 47.875-38.822 86.7-86.705 86.7-47.877 0-86.687-38.825-86.687-86.7 0-47.885 38.81-86.694 86.687-86.694 47.882 0 86.705 38.812 86.705 86.694z" fill="#0684BA"/><path d="M235.704 328.474c.353.054 1.277-.261 1.551-.338-.653-.512-2.04-.579-2.87-1.075.074.028-2.601-1.572-2.028-.246.133.315.645.028.87.189-.31.479-.456.33-.105.548 0-.008-2.975-1.61.018-1.723-2.068-1.846.131-1.27-.525-2.45-.443-.796 1.746-1.551.563-2.255-.556-.315-1.18-.261-1.754-.668-.824-.584-.046-1.628.712-1.531.077 0 .479-1.856.62-2.163-.218-.1-1.754-1.987-1.377-2.396.453-.466 2.445 1.234 2.941-.031.184-.456-.709-1.677-.632-2.176.906-.092 6.82.133 5.814-2.573-.358-.947-2.844-2.365-2.588-3.146.876.133 2.294 1.375 3.228.886.765-.387 1.367.451 2.168-.451.143-.161 1.449-1.559 1.073-1.825-.397-.008-.617.21-.65.689-.479-.64.338-1.083.765-1.546.087.141.182.279.302.415.484-.753 3.231-4.321 3.313-4.39 1.4-1.638.246-3.814 1.633-5.12 1.265-1.196 2.639-1.969 4.221-2.593.484-.202 2.232-1.121 2.583-1.004 2.9.883 2.55-2.593 4.401-4.152 1.874-1.572.484-9.6 2.022-10.197.829-.323 3.31-3.361 4.572-4.754 1.242-1.334 1.405-3.054.927-4.741-.73-2.614-1.467-1.137-3.351-2.255-1.495-.899-2.655-2.696-4.516-2.949-1.088-.148-2.24.197-3.32-.133-.448-.156-1.708-.901-2.163-.261.069-.113-1.019.392-.945.428-.123-.074-.018-1.426-.366-1.748-.566-.54-2.506-1.096-3.205-1.27-1.608-.415-2.012 1.503-2.437-.791-1.329-.353-2.647-1.91-2.422-2.289.131-.164-2.074-4.8-2.368-4.372-.023-1.567-4.854-3.476-6.075-2.739-1.098.799-3.131-.724-3.807-1.454-.773-.822-.737-1.708-2.028-2.24-.538-.233-1.475-.115-1.272-1.055.218-.998-2.376-1.19-2.614-2.153.374.059.678-.123 1.006-.215-.993.356-2.22-.379-3.215.428-1.434 1.201-2.312-.561-3.904-.253-1.999.387-.645-.343-1.917-1.119.527.323-2.348-1.321-1.672-1.265-.612-.069.077.991-.589 1.229-1.039.387-1.946.62-1.272 1.897 1.152 2.284-2.412 1.201-.735-.369.305-.276.392-3.261.727-3.164-.428-.131-3.684 1.987-4.045 2.424-1.055-1.664-2.803 4.145-3.397 4.178-.305-1.413-1.667-1.994-2.834-2.437-1.016-.376-2.035 2.035-3.343.709-2.353-2.368-1.329-6.188-.141-8.911.52-1.244-4.306-1.623-4.908-1.124-1.18.975.177-1.974.169-1.894.141-1.19.415-1.976.929-1.956.312-.719 2.107-3.93 1.928-4.314-.732-1.697-3.779 1.298-4.06 2.051-.3.737-.891 1.152-1.17 1.812-.292.66-.85-.151-1.344.105-1.313.753-3.19.369-2.908-1.531.302-2.319-.576-6.856 2.01-8.428.783-.492.911-2.772 1.823-3.581.108-.105 2.721-1.615 2.465-1.91.389.399 2.435-.415 2.708.118.182.433 1.39.888 1.833.65-.028.054.197-1.014.197-1.024-.049-.01-.835-.123-.794-.387.074-.34 2.537-.11 2.604-.102 1.155.082 2.033 1.05 2.89.468 1.324-.904.512 5.046 1.047 5.586.289.33.084 1.047.645.983.75-.069.998-7.734 2.964-9.321 1.449-1.152 3.005-2.199 4.616-3.062.512-.261 1.825-.904 2.092-1.398-.054-.238-.317-.54-.563-.279-.087-.468.701-.184.845-.671.148-.502-.402-.65-.346-.824-.02.041.492-1.006.33-.852l.02.102c.814.118-.169-.758-.21-.87 1.047.543.612-1.144 1.628-1.236-.73.31-.589 1.124-.494 1.618.218 1.085 1.17-1.505 1.062-1.4.957-.407 2.488-1.203 3.528-1.946-.246-.113-.507.084-.786-.133 1.057-.381 2.253-.246 3.287-.783-.056-1.078.596-2.202 1.792-2.412 1.851-.294 4.032-1.434 5.878-2.066-.287.653.156.154.653.387-.596-1.562-3.884 2.908-2.324 1.992 1.329-.758 5.77-1.446 6.377-2.739-.013-.054-.302-.916-.289-.916-1.096 0-1.193 1.359-2.527 1.359-2.465-.038-.998-1.546-1.495-2.214-.435.1-.806-.036-1.098-.366.236-.056 3.277-.748 1.672-1.114-2.609-.558-4.316 2.335-6.464 2.276 1.6-.988 3.766-3.067 5.704-3.313 2.068-.287 4.915.727 6.743-.553 1.597-1.119 2.711-.294 3.63-2.122.284-.499-1.175-1.121-1.559-1.201.161-.189.492 0 .599-.302-2.419-1.085-2.934-2.171-3.22-4.964-1.239.893-5.396 2.811-3.174-.312-.794-.348-3.315-2.44-4.275-1.001-.453.653-1.152 1.756-1.882 2.094-1.664.748-.197.596-.745 1.692-.942 1.828-3.187 1.572-4.25 3.167-.668 1.004-.888 1.708-1.935 2.179-.909.404-1.257-.676-.812-1.539.33.366.62.415.886.148.077-.374-.494-.189-.653-.343.325-.563.712-1.075 1.165-1.556-.154-.079-2.483-.456-2.396-1.07.156-1.26-1.446-.568-1.728-.955 1.244-1.562 1.249-2.296 3.686-3.515.837-.422 5.514-2.813 6.392-2.22-.113.543-.707.422-1.006.699.678.182 2.627.387 3.302-.082-.154-.115-.947-1.428-.53-1.723-.074.056 1.336.018 1.444-.01.75-.184 1.58-.276 2.007-1.042.376-.668 2.844-1.546 3.436-1.216 3.231 1.825-4.385 3.779-4.46 3.571.151.545 2.217-.361 2.719 1.037.128.351 2.468 1.111 2.703.773.131-.159-.66-1.011-.707-1.219 2.447 1.175 2.317.573 1.915-1.068-.387-1.562 1.436.095 1.546.138.399.218 2.066-.732 2.304-1.075-.596-.471-1.631-.443-2.156-1.024-.484-.463 1.293-.584.668-1.103-.735-.62-1.925-.453-1.513-1.651-.412-.115-.817-.061-1.198.159.102.223.351.059.435.166-.399.253-.855.292-1.326.271.159-.197.561-.197.568-.604-1.262-.148-1.938.604-3.036.955.307-.463.837-.604 1.216-.942-1.208.161-2.355.604-3.308 1.388.151.146.274.284.374.453-.919.822-2.163 1.068-3.231 1.567.177-.735.957-.548 1.216-1.088-.399.008-.778.095-1.134.261.445-.064 1.823-1.423 2.132-1.774-1.974-.22-2.803 2.33-4.659 1.964.384-.443 1.162-.212 1.436-.927-.689.084-3.297 1.859-3.73.927-.02-.056 4.78-1.964 5.274-2.642-.33-.046-.673.287-.983-.105.238-.264.625-.282.904-.573-1.562-.01-6.257 1.892-5.903 2.99-.604.494-1.247.625-1.987.307.282-.443 1.306-.458.484-1.114-1.518.563-2.985 1.183-4.467 1.818-3.364 1.495-6.687 3.261-9.812 5.215-5.204 3.203-9.48 6.986-13.765 11.295-2.271 2.296-10.941 12.421-10.913 14.531.036 1.559-.886 2.926-1.475 4.326-.471 1.16-.512 2.76-1.088 3.817-1.257 2.243-.681 4.838-1.249 7.411.714-.517 2.186-12.337 3.456-11.889.248.077-.791 4.892-1.037 5.501-1.078 2.468.325 5.494-.369 8.087-.092.246-.445 1.569-.461 1.818-1.183.919.32 2.294.312 3.295 0 .589 3.044 3.267 3.63 3.599 1.277.76 1.533-.589 2.691-.333 1.047.212 1.352 2.099 1.902 2.921.75 1.119 3.599.988 4.073 1.526.338.392.069 2.573 1.354 2.88-.005-.148-.02-.929.148-1.032.402-.246 1.229 1.201.95 1.467-.42.1-.773-.054-1.08-.435 0 .182-.218 3.028.609 2.483l.092-.538c1.068.481.993 2.079 1.764 2.284 1.06.307 1.861 1.644 2.647 2.012.717.358.527-2.504 1.889-2.644 1.088-.092 1.708 2.76 2.081 3.451.558 1.001-.763 3.412-.02 4.191.742.794-1.884 2.703-2.012 3.497-.1.617-1.418 1.193-1.375 1.426.102.681-.3 1.585-.538 2.209-.666 1.784-.343 1.94.812 2.77.038.028-2.135 4.339-.888 5.443 1.974 1.615 4.572 5.609 5.204 8.141 1.295 3.456 3.264 5.571 6.554 7.299 2.691 1.398 4.588 3.804 4.588 7.014.092 1.889-.187 4.262.614 6.06.55 1.236-.502 3.274.292 4.398.512.694-.156 1.096.154 1.761.317.701 1.032 1.864 1.024 2.678-.013 1.347-.005 2.947.084 4.311.036.466-.394 1.236-.169 1.541.32.366 2.148 4.864 2.148 6.188-.005.323 1.39-.084.125-1.377 1.518-.835 1.201 2.711 1.313 2.732-1.367-.458-.484-.077-.379 1.664.067 1.037-.274.532.584.722 1.334.315 0 1.216.494 1.93 1.009 1.462 2.555 2.798 3.617 3.912 1.741 1.834 4.69 1.54 6.74 1.978.282.046-.386-.095 0 0zm5.648-141.32c-.481.422-.998.504-1.536.668.376-.576.952-.479 1.536-.668zm-4.508-.394c.343-.036.625.056.814.307.005.125-1.856.218-2.13.704.225-.822.921-.694 1.316-1.011.189.243-.395.317 0 0zm-4.552 3.215c.397.095-.561-.082 0 0zm-2.494-4.751c.177-.197.31-.161.397.095-.166.194-.304.156-.397-.095zm-2.48 7.416c-.691-.051.742.015 0 0zm.75-2.88c-2.419 2.273-.553.028-1.252.732l-.038.077c-.182-.225 1.223-.799 1.29-.809-.307.294-.42.077 0 0zm-.904-2.67c-.428.512-.428.512-1.039.394.322-.223.742-.141 1.039-.394zm10.78-8.512l-.563.005c.794-.645.635-.005.563-.005zm1.756-1.155c-.276.3-.645.128-.983.271.351-.685.407-.693.983-.271zm-9.776.786c.205-.189.453-.271.704-.256.246.343-1.47.538-.704.256.105-.179-.097.046 0 0zm-.448-.489c.284.123.261.246-.069.387-.231-.138-.197-.264.069-.387zm-12.629 21.571c.02 0-3.786 1.516-3.497.576-.1.294 1.306-1.068 1.011-.947.312-.131 2.862-.287 3.602-.282-.389.384-.75.517-1.116.653zm3.039-1.877c3.133.302-1.869 1.242-2.404.689.714-.609 1.536-.791 2.404-.689zm-.517-19.509c.837-.538 1.736-.952 2.829-1.201-.804.676-1.871.945-2.857 1.216l.028-.015zm.174 16.947c-.148.151-.276.141-.407 0 .187-.069.374-.126.407 0zm-.927 1.881zm-.926-1.602c1.142.532.484 2.312-.486.927-.038.819-1.469 2.204-2.243 2.368.302-.323.399-.681.31-1.075-.246-.182-.717.366-.98.358.108.499 2.051-3.328.422-2.232-.607.463-4.526 4.641-4.756 4.411-.366-.366 1.733-3.446 1.889-3.553 1.343-1.12 4.144-2 5.844-1.204zm-2.179-14.577c.159-.108 1.408-.873 1.569-.691.422.502-2.012 1.121-2.135 1.137.141-.297.371-.343.566-.446.435-.256-.195.103 0 0zm.261 10.227c-.005.054-.492 1.024-.814.64-.233-.271.727-1.077.814-.64-.038.254-.023-.122 0 0zm-2.76-7.905c.156 0 2.186-1.265 2.255-.745.021.149-2.482.781-2.255.745zm-.555 2.112c-.125.228-.246.34-.532.34.112-.235.289-.273.532-.34zm-1.423 4.905c.3-.218.955-1.285.625-1.708.174.225-1.224-.148-.584-.387.264-.092 1.861-.96 2.115-.689.456.463-1.987 3.034-2.483 3.249.045-.263.196-.368.327-.465zm1.395 3.233c1.761-.55 2.388-1.554 3.448-.21.392.502.323 1.795-.612 1.482.248.095-2.852-.207-2.286-.55-.625.402-1.825.668-2.552.346.676-.389 1.28-.824 2.002-1.068zm-2.437-3.261c.156.407.038.625-.443.701l.443-.701zm-24.896 37.844c-.794-.028.622-.028 0 0zm10.035 7.202c-.218.074.632-.139 0 0zm24.52 8.102c-.423-.064.509.044 0 0zm4.019 71.846c-.684-.117.368-.547 0 0zm1.774-35.937zm.281 22.405c-.437.141.484-.197 0 0zm2.371 24.11c-.32-.174-.32-.279-.02-.33.353.128.358.261.02.33-.138-.007.108.052 0 0zm3.121 1.378c-.323-.064-.294-.197.1-.379.266.112.238.243-.1.379zm-6.623-8.919l-.108.036c.1-.072.128-.095.108-.036zm7.767-144.277h-.02l.015-.02.005.02zm-29.443 13.955h-.02.02zm.812-.704zm137.546 53.586h.008c-1.692-6.244-2.957-12.421-5.555-18.468-3.062-7.194-7.107-13.97-11.999-20.073-4.6-5.765-9.923-10.929-15.831-15.352-2.865-2.148-5.862-4.106-8.991-5.893-1.487-.858-3.021-1.654-4.549-2.422-.681-.317-3.041-.95-3.392-1.521.023.256 1.377.945 1.551 1.134-.906-.233-3.336-1.265-3.364-1.426.044-.113.248 0 .233-.197-1.37-.863-6.495-2.747-7.521-1.359.225-.269 3.528 3.561 3.633 4.239.202 1.49 2.534 3.067 4.017 3.553 2.071.694.52-.23 1.398-.722.548-.282 1.068.937 1.592.666l.015-.038c-.141-.276-.302-.561-.471-.852-.141 0 3.743 4.019 4.242 3.151-.474-1.088-1.16-2.332-2.263-3.356-.983-.914-2.519-1.006-3.574-1.917-.54-.463-2.519-1.91-2.732-2.586 2.614.092 5.627 5.627 8.246 3.479-.351-.256-.707-.522-1.052-.812.479.148 2.662.847 1.925 1.764-2.081-.366 1.782 1.759 1.833 1.989-.374-.028-.632-.325-.983-.358.141.735 2.204 1.475 2.345 2.721-1.242.187-.701-.758-1.503.253-.261.32-1.37.225-1.987.266-1.428.123-3.013-2.312-4.076-3.062.443 1.362 1.18 1.994 2.706 2.954.737.422-1.024.612-1.014 1.219.064 0 .479.218.466.335 0 .077-.392-.279-.466-.335.156-.092-.238 2.388-.271 2.353 1.172 1.362-1.572.975-1.638 1.011.218.31.648.484.753.927-.801.056-1.446-.072-2.232.218 1.137.325 7.337 3.205 5.998 5.361-.451.707-4.664-.166-5.43-.205-1.636-.108-.113 1.556-.084 1.754.266 1.236 1.229 1.784 1.144 3.223-.069 1.024.978 1.062 1.301 1.915.274.763.113.824.906.932 1.393.172 1.421-.036 2.593.878.814.64 1.144-.612 2.127-.64 2.465-.113.366-.612 1.546-.945 1.462-.404-.407-2.703-.315-3.133.097-.607-.092-1.275.714-1.503 1.236-.333-.343-1.631-.428-1.984-.238-1.011 3.448.878 3.005-1.718 2.115.655 4.301 2.588 6.257 3.686 1.16.691 2.312 1.359 3.154 2.452.998 1.303-1.441.768-1.595 1.142-.148.412 2.158 1.457 2.527 1.446.043-.233-.279-1.569-.323-1.802-.113-.922-1.441-1.833-1.347-2.568.435.036.822.207 1.144.481-1.242-1.541-3.246-1.687-4.664-2.811-.87-.709-1.93-1.265-2.76-1.994-.005 0-1.516-1.917-.463-1.549 1.651.576 3.456 2.25 5.14 3.133 1.341.712 1.687 1.134 2.67 2.289.379.451 2.458 2.842 2.908 2.934-.015-.026 1.692 1.492 2.368 1.718-.31-.694-.579-1.562-.914-2.117-.471-.75-2.396-1.172-2.396-2.299.43.031.492-.422 1.421-.394-.499-.01.602-.735.532-.63-1.789-1.016-4.214-4.017-4.864-6.054.489.02.773.681 1.298.338-.174-.338-.218-.701-.174-1.08.148.161 1.841 1.615 1.51 1.907-.484-.008-.87-.205-1.216-.581.225.85 1.096.868 1.434 1.462.051-.236-.12-.43.077-.694 1.495.617 4.516 2.985 4.931 4.646-.653.069-1.902-1.318-2.337-.973-.148.33-.136.66.069.988-.205 0-.379.056-.556.136.233.197.374.451.415.745-.241.077-.499.151-.745.218.21.84 4.613 5.018 4.915 4.608.105-.148-.182-.568-.105-.643.241-.264.927.945 1.285.712.282-.189-.294-.566.036-.73.668-.338 3.302 4.813 3.617 5.425 1.277 2.399.428.937-.532 1.265-.148.243-.261.502-.266.799-1.546-.356-3.226-1.236-4.483-2.135-1.974-1.441.655 3.896-.497 3.223-.681-.379-1.068-.95-1.917-1.011-1.193-.125-1.546-1.426-2.647-1.792-.919-.302-4.495-.617-4.032-2.284.374-1.405-1.434-2.557-2.035-3.087-.31-.284-4.278.23-4.931.417-1.098.358-2.826.717-3.443 1.741-1.052 1.897-3.482-.604-4.467-.212-.512.207-.013 1.774-.287 2.276-.376.742-1.354.801-1.6 1.682-.422 1.633.814 2.959.246 4.46-.451 1.183-2.752 1.7-2.788 2.683-.008.512-.105 1.103-.596 1.38-1.047.586.028 1.966-.625 2.665-3.517 3.574 1.129 7.094.33 11.041-.435 2.214-.714 2.678.253 4.6.218.492.051 3.948 1.813 2.557.225 2.004 2.824 2.435 3.279 4.355.563 2.276 2.788 3.279 4.536 4.636.694.55 1.285 1.247 2.079 1.664 1.434.737 2.401-.399 3.766-.786 1.234-.34 2.514-.218 3.686.338.66.317 5.624-3.21 6.981-2.542.986.486 1.039 1.697 1.498 2.55.637 1.229 2.015-.371 2.929.036 1.631.732 2.115 6.694.722 7.788-1.016.763 1.349 4.024 1.672 4.685.919 1.841 1.761 5.064 1.475 7.114-.233 1.651.218 4.27-.722 5.729-.95 1.459-1.498 2.993-2.255 4.669-1.969 4.242-.084 9.052-1.761 13.478-1.024 2.255-.842 4.662-1.405 7.03-.358 1.526-2.196 3.715-1.49 5.309 1.124-.998 2.775-.87 4.009-1.49 2.565-1.262 3.791-4.234 5.655-6.208.991-1.039 1.623-2.353 2.204-3.661.556-1.216 1.7-1.994 2.227-3.187 1.298-3.041 2.478-6.047 3.804-9.075 2.739-6.546 3.195-12.823 4.157-19.812 1.003-7.417 1.023-14.465-.367-21.853zm-6.546-17.221c-.353-.881-4.972-7.652-4.419-8.023.602-.387 10.478 17.091 9.411 19.802-1.526-3.979-3.307-7.858-4.992-11.779zm4.234 30.927c-.189-.484.069-.906.189-1.467.219.602-.107 1.006-.189 1.467zm-.512 2.739c-.023-.292-.036-.535.161-.745.139.302.006.487-.161.745zm-1.646 22.436c-.174.077-.366.133-.532.189-.317 0 .584-.443.632-.463-.048.154-.048.22-.1.274zm.254-9.114c-.005-.814.015-.865.842-1.393-.159.589-.75.851-.842 1.393zm.934-4.236c-.015-1.526-.069-3.302.266-4.79.061 2.578.189 5.181.105 7.78-.404-.541-.371-2.33-.371-2.99zm1.349 4.853c-.02 1.39-.218 5.169-1.144 6.257.1-2.36.957-4.48 1.014-6.828.194.241.13.407.13.571zm1.088-14.18c-.392 1.672-.008 2.189-1.006 3.103-.015-1.239-.458-3.592.806-4.319.175.402.313.73.2 1.216zm-54.42 80.528c.133.253-10.908 3.359-12.029 3.602-4.595.97-9.236 1.559-13.926 1.797-8.904.435-18.232-.376-26.793-2.977 1.106.113 2.445.689 3.561.512-1.075-.668-2.388-.435-3.351-1.277 3.581.589 6.994.315 10.268.745-.348-.458-3.336-1.172-3.305-1.482.417-.036 2.719-.12 2.798-.174 1.088-.842-1.725-.745-1.462-1.341.069-.166.837.092 1.116-.261.428-.568 0-.87.169-1.149.12-.241 4.431-.993 4.89-.801-.507.294-1.088-.044-.878.796-.428-.064-1.766-.015-1.853.561.031-.141 1.467 1.856 1.521 1.953.494.788 2.214 1.249 2.383 2.186.266 1.58 8.481 1.413 9.72 1.285 3.059-.358 5.932-1.459 8.952-1.979 1.789-.323 3.587-.822 5.399-.991.858-.092 3.666-1.075 4.332-.858.409 1.468 6.97-.434 8.488-.147.013.041-.246-.036 0 0zm49.935-47.852c.351-.899.637-1.81 1.075-2.675-.291.929-.675 1.787-1.075 2.675zm1.424-3.594l.141-.33c-.001.141-.077.233-.141.33zm-94.81-113.485c-.456-.095-.955-.044-1.446-.102.253-.23 1.713-.284 1.075-.684 2.007-1.226 6.188-1.49 8.476-1.198 2.588.32 5.176-.494 7.706-.074 1.039.148 1.92.169 2.954.248.901.095-.118 1.021.901 1.162.576.084 1.789 1.446 2.337 1.144-.02.955-.448.282-.154 1.18.069.197 1.129.801 1.088.87-.097.141-2.977-.061-2.844-.028-.23-.036.044.451.233.366.576.161 1.812-.036 2.445.02-1.454 1.313-3.617 1.152-5.24 2.212-.986.635-2.473.576-3.558.963 0 1.126-.837 2.478-1.567 3.61-.52.786-4.186-1.029-4.572-1.503-.786-.952-2.619-3.479-.64-4.273 2.399-.934.005-.164-.699-.681.576-.796 1.216-.522 2.127-.399-.468-.64-1.042-.812-1.736-.463-.236-.691.988-1.316-.095-2.051-.456-.32-2.995.054-3.069-.397-.154-1.114 3.09-.512 3.666-1.426-2.429-.508-5.035 1.86-7.388 1.504-.458-.094.435.057 0 0zm45.647 16.52c.379-.051-.504-1.285-.722-1.531.271.028.504.049.758-.105-.202-.576-2.724-2.03-2.908-1.917-.955.594-2.148-2.079-2.268-2.435 1.631-.243 2.647 1.528 4.134 2.237 1.236.612 5.768 2.767 5.908 4.122.092.689-3.428.397-3.955 1.206-.399-.983.881-.975.845-1.303-.041-.225-1.623-.297-1.792-.274zm-46.195 1.277c-.238.177-3.32 3.08-3.238 3.364.069.264 3.19.077 3.722.369-.028.358-.456.182-.52.481.397 0 1.651-.773 1.866-.54.023.192-.003.381-.102.568 1.377 1.359 1.249-1.595 1.321-1.756-.97-.125.202-1.492-1.434-.911.113-.038-1.769-.556-1.664-.453-.156-.141 1.329-1.434 1.428-1.6-.864-.208-.972.166-1.379.478-.535.379.105-.084 0 0zm3.026 3.211c.12.125-.22.125 0 0zm-.696-.08c.082-.108.604-.317.289-.013-.113.205-.568.341-.289.013zm-2.184-3.533h.028l.005.028-.033-.028zm-2.744 2.791c.069 0 .141 0 .2.054-.075-.003-.418-.018-.2-.054zm-30.088 36.155c-.85.095.548-.658.435-.934-.576-1.313-4.508-1.615-4.874-2.657.172-.064.294-.187.343-.356-1.349-.55-2.035 1.106-3.267.988 2.542-4.278 8.801.625 11.32 2.601-1.31.161-2.644.181-3.957.358zm3.269 2.288c-.63-.279 2.079-.256 2.44-.407-.527-.822-.056-1.265-1.088-1.585.955-1.157 4.111.192 5.105.622-.084.148-.287.02-.379.189.077.082 2.163 1.784.765 1.216-1.539-.645-2.396.253-3.469.87-.852-1.217-2.247-.367-3.374-.905zm73.408-43.855c1.475 1.528-.822 2.688-1.848 1.713-.504-.535-.218-1.748-1.382-2.117.307-.092.632-.184.927-.302-.794-1.882 1.922.302 2.303.706zm-19.207-9.27c-.077-.312 2.127-.174 2.478-.243.596-.095 5.015.346 3.459 1.047-1.211.538-2.957 1.152-4.088.115-.278-.238-1.821-.865-1.849-.919zm40.14 21.781c.507 0 1.769 1.971 1.559 2.296-.596.932-1.572-1.418-2.186-1.784.228-.162.433-.32.627-.512zm-68.597-26.693c1.498-1.121 1.846-.489 3.715-.3-.605.545-2.041.655-3.715.3.414-.308 1.674.355 0 0zm33.098-1.293c-1.124-.302-2.271-.343-3.346-.781 1.288-.148 2.836.348 3.73.612.304.089-.461.151-.384.169-1.124-.302.089.018 0 0zm-3.344-.781l-.371.044c.126-.121.254-.128.371-.044zm-58.426 60.175c.236.028.374.156.415.374-.159.625-2.102-.251-2.309-.525.675-.399 1.3-.169 1.894.151zm13.952-.048c-1.022 2.521-3.633-1.772 0 0-.151.368-.612-.295 0 0zm4.037 12.265c.023-.067.092-.095.182-.108l-.182.108zm.345-.067c-.044-.008.282-1.032.937-1.08.789.463-.553 1.126-.937 1.08zm8.215-70.786c-.689.461-1.523.156-2.25.425 1.006-.692 1.462-.638 2.25-.425-.688.46-.128-.029 0 0zm-26.055 50.834c-.274-1.032-.673-1.055.028-1.956.263.957.263 1.533-.028 1.956-.108-.428.291-.423 0 0zm-18.801 35.852c-.013.387-.187.512-.55.387-.123-.118-.179-1.364.046-1.623.171.402.345.801.504 1.236.072.164-.159-.435 0 0zm43.464-67.814c.801-.028 1.449.225 2.166.758-.945.174-1.562-.19-2.166-.758zm71.79 8.005l.015.008c-.246-.059-1.651-.927-1.075-1.377.41-.31 1.014 1.228 1.06 1.369zm14.561 7.235c-.274-.276-.85-.082-.998-.653.484.259 1.032.133 1.503.504-.19.126-.346.31-.505.149zm-83.73-33.634c-.151-.207-.394-.077-.543-.248.399-.453.952-.284 1.436-.422-.017.041-.593 1.111-.893.67zm-2.437.54c-.643.474-1.298.947-2.191.878.591-.629 1.405-.724 2.191-.878zm-.228 21.464c.179.028.356-.026.645-.038-.852 1.042-1.848-.422-1.633-.474-.151.033.937.499.988.512zm.356-21.056c.604-.479 1.313-.566 2.035-.504-.624.373-1.29.57-2.035.504zm67.85 27.888c-.676-.1 1.277-.717.576.182-.22-.021-.402-.072-.576-.182zm21.658 4.951c-.43-.212-.586-.479-.458-.963.348.257.478.52.458.963zm-88.026-29.693c.269-.435.52-.55 1.377-.532-.43.483-.872.552-1.377.532zm-6.241 2.908c-.502.274-.873.456-1.4.435.376-.435.811-.415 1.4-.435zm52.029 3.581c-.1.189-.008.305.141.451-.161-.064-.758-.822-.302-.95.21.105.261.254.161.499zm-78.415 42.455c-.018.31-.169.451-.438.443-.135-.253.307-.978.438-.443zm29.192 90.043c.223.084.353.253.387.504-.001.753-1.37-.406-.387-.504zm-1.966-135.631c-.161.246-.387.379-.758.502.187-.407.443-.469.758-.502zm-39.207 78.615c-.082.873-.271-.832 0 0-.018.097-.038-.095 0 0zm44.995-77.166l.115.028c-.102.061-.3.061-.115-.028zm-3.868-8.266l-.312.049c.099-.08.204-.08.312-.049zm-.346.056l.036-.008-.036.008zm-.417.118l-.013.02.013-.02zm0 0c.095-.125.246-.113.387-.118-.101.146-.231.174-.387.118zm2.747.141h.015-.015zm0 .007c-.028.169-.143.141-.261.141.051-.141.148-.148.261-.141zm-31.89 88.819zm92.715-82.012c.535.149.044.11 0 0zm-13.383 3.282l-.015-.01c.044 0 .061.046.044.118l-.029-.108zm-47.709-9.951h.005l-.013.008.008-.008zm-.181.036l.174-.028c-.082.12-.139.12-.174.028zm78.994 26.801v-.013l.013.02-.013-.007zm-68.813 55.898c-.254-.216.192-.154 0 0zm41.211 80.547l-.054.02.054-.051v.031zm-.054.021zm-69.258-141.944c.044-.01.847-.105.558.205-.307.168-.484.084-.558-.205.094-.011.007.168 0 0zm-5.069-7.058c-.223-.148-.169-.31.148-.479.274.1.233.261-.148.479-.097-.013.192-.049 0 0z" fill="#F2F9FF"/><path d="M292.357 177.28c19.94 15.009 32.819 38.858 32.819 65.705 0 45.399-36.795 82.186-82.184 82.186-26.849 0-50.708-12.879-65.702-32.812 13.752 29.709 43.812 50.33 78.694 50.33 47.882 0 86.705-38.825 86.705-86.7.003-34.892-20.621-64.934-50.332-78.709z" fill="#03628A"/><path d="M324.644 206.579c-.43-.212-.586-.479-.458-.963.348.257.478.52.458.963zm-88.94 121.895c-2.051-.438-5.002-.143-6.738-1.974-.86-.899-2.012-1.946-2.972-3.098 2.074.443 4.17.781 6.295 1.055-.118.238-.036.576.852 1.375-2.993.113-.018 1.715-.018 1.723-.351-.218-.205-.069.105-.548-.225-.161-.737.125-.87-.189-.576-1.329 2.099.271 2.028.246.829.497 2.217.563 2.87 1.075-.274.077-1.172.384-1.539.338l-.013-.003zm-7.631-3.367c-.3.051-.3.156.02.33.341-.069.336-.202-.02-.33zm3.241 1.329c-.394.182-.422.315-.1.379.341-.136.369-.267.1-.379zm90.365-120.159c-.471-.374-1.016-.246-1.503-.504.148.571.722.374.998.653h.008c.152.153.323-.023.497-.149zm-8.299-5.732l.287.177c-.113-.125-.253-.212-.374-.323l.087.146zm.287.177l.013.005-.013-.02v.015zm-77.947 127.752h-.013.013zm99.108-105.014l-.097-.225.097.225zm-48.876 113.728c-1.608-.253-8.028 1.587-8.428.141-.668-.218-3.474.765-4.332.858-1.812.166-3.61.668-5.399.991-3.021.52-5.893 1.623-8.952 1.979-1.242.128-9.454.294-9.72-1.285-.169-.934-1.889-1.398-2.383-2.186-.054-.097-1.49-2.092-1.521-1.953.087-.576 1.426-.625 1.853-.561-.21-.837.374-.499.878-.796-.456-.189-4.769.563-4.89.801-.169.279.261.584-.169 1.149-.279.353-1.047.092-1.116.261-.264.596 2.55.499 1.462 1.341-.082.054-2.381.141-2.798.174-.033.31 2.957 1.024 3.305 1.482-3.272-.43-6.687-.156-10.268-.745.963.842 2.276.609 3.351 1.277-1.116.174-2.455-.399-3.561-.512 8.561 2.601 17.889 3.412 26.793 2.977 4.69-.238 9.334-.827 13.926-1.797 1.121-.246 12.163-3.351 12.029-3.602l-.06.006zm54.474-80.484l.008-.044-.008.044zm-1.912-26.652c.435 1.539.85 3.054 1.242 4.605.094-.883-.413-2.57-1.242-4.605zm3.118 32.261c-.963 6.989-1.418 13.268-4.157 19.812-1.329 3.029-2.506 6.034-3.804 9.075-.527 1.193-1.672 1.974-2.227 3.187-.584 1.308-1.216 2.619-2.204 3.661-1.864 1.974-3.09 4.946-5.655 6.208-1.234.62-2.885.492-4.009 1.49-.707-1.595 1.132-3.786 1.49-5.309.563-2.368.379-4.774 1.405-7.03 1.677-4.426-.205-9.234 1.761-13.478.758-1.677 1.306-3.21 2.255-4.669.94-1.459.489-4.081.722-5.729.287-2.053-.556-5.276-1.475-7.114-.323-.66-2.691-3.922-1.672-4.685.886-.691 1.006-3.315.579-5.34.351-3.082.54-6.226.54-9.403 0-11.197-2.248-21.888-6.313-31.613.166.069.315.174.532.197.85.061 1.236.632 1.917 1.011 1.152.673-1.475-4.664.497-3.223 1.257.899 2.936 1.779 4.483 2.135.008-.294.12-.556.266-.799.96-.325 1.81 1.134.533-1.265-.315-.612-2.949-5.763-3.617-5.425-.33.164.248.54-.036.73-.358.23-1.044-.975-1.285-.712-.077.074.21.494.105.643-.302.41-4.705-3.768-4.915-4.608.246-.067.504-.141.745-.218-.044-.294-.182-.548-.415-.745.174-.079.351-.136.556-.136-.205-.325-.218-.658-.069-.988.435-.343 1.684 1.044 2.337.973-.415-1.661-3.436-4.029-4.931-4.646-.197.264-.028.461-.077.694-.338-.594-1.208-.612-1.434-1.462.346.376.73.573 1.216.581.33-.292-1.362-1.746-1.51-1.907-.044.379 0 .745.174 1.08-.525.343-.806-.317-1.298-.338.653 2.035 3.075 5.036 4.864 6.054.069-.105-1.032.62-.533.63-.927-.028-.991.425-1.421.394 0 1.126 1.925 1.549 2.396 2.299.338.556.604 1.426.914 2.117-.676-.225-2.383-1.743-2.368-1.718-.451-.092-2.527-2.483-2.908-2.934-.745-.863-1.124-1.324-1.841-1.802-4.137-6.31-9.119-11.999-14.776-16.94-.013-.443-.64-.814-1.224-1.047-.939-.778-1.887-1.562-2.865-2.296.604.21 1.18.394 1.475.54 1.531.768 3.062 1.564 4.549 2.422 3.128 1.787 6.126 3.743 8.991 5.893 5.908 4.426 11.231 9.587 15.831 15.352 4.89 6.103 8.934 12.879 11.999 20.073 1.144 2.675 2.007 5.366 2.788 8.061-2.488-6.07-7.759-15.13-8.202-14.84-.556.374 4.065 7.142 4.419 8.023l.097.225c1.656 3.845 3.4 7.644 4.895 11.553.036-.087.028-.238.036-.356.499 1.925.991 3.863 1.526 5.798h-.008c1.39 7.395 1.37 14.443.356 21.864zm-2.668-8.151c.082-.461.407-.863.189-1.467-.117.561-.378.981-.189 1.467zm-.512 2.739c.166-.256.3-.443.161-.745-.196.207-.184.453-.161.745zm-1.546 22.165c-.051.02-.95.463-.632.463.166-.056.358-.113.532-.189.052-.057.052-.123.1-.274zm.996-10.235c-.827.527-.847.579-.842 1.393.092-.543.683-.805.842-1.393zm.092-2.844c0 .66-.036 2.45.374 2.99.084-2.598-.044-5.202-.105-7.78-.338 1.487-.284 3.266-.269 4.79zm1.349 4.853c0-.161.064-.33-.133-.571-.054 2.348-.911 4.467-1.014 6.828.93-1.091 1.127-4.867 1.147-6.257zm1.088-14.18c.113-.486-.028-.814-.197-1.216-1.265.727-.822 3.08-.806 4.319.998-.906.617-1.431.998-3.062l.005-.041zm-54.366 80.507v-.031l-.054.051.054-.02zm51.445-51.755l-.141.33c.065-.097.141-.189.141-.33zm-.491 1.252c-.438.865-.724 1.777-1.075 2.675.402-.891.786-1.749 1.075-2.675z" fill="#CEE2F2"/><g fill="#34495E"><path d="M262.679 391.808c-1.723-1.175-3.505-19.292-4.726-49.149-.929-22.802-1.541-52.47-1.541-86.661 0-34.189.612-63.857 1.541-86.669 1.216-30.093 2.99-48.264 4.69-49.165 1.736.904 3.564 19.348 4.769 49.892l.983.128c-.141-3.666-.315-7.201-.463-10.593-2.01-40.379-4.37-40.379-5.253-40.379-.901 0-3.251 0-5.243 40.379-.159 3.126-.312 6.359-.445 9.723-.996 24.356-1.539 54.666-1.539 86.682 0 32.013.54 62.333 1.539 86.689.133 3.361.289 6.592.445 9.725 1.992 40.376 4.342 40.376 5.243 40.376.883 0 3.243 0 5.253-40.376.148-3.389.323-6.93.463-10.606-.323.051-.653.1-.983.143-1.208 30.272-3.005 48.673-4.733 49.861zM345.539 293.778c-2.752-2.066-5.668-4.193-8.714-6.377-.105.31-.225.617-.366.934 2.97 2.112 5.814 4.193 8.517 6.216 19.932 14.93 30.643 25.915 28.654 29.363-.479.822-1.728 1.244-3.743 1.244-7.508 0-24.049-5.814-45.681-15.662-21.637-9.833-48.353-23.675-76.157-39.724-27.402-15.828-52.741-31.949-72.512-46.098-2.975-2.125-5.814-4.206-8.504-6.223-19.932-14.94-30.648-25.915-28.669-29.361.479-.819 1.728-1.236 3.735-1.236 7.516 0 24.061 5.811 45.678 15.647.205-.269.394-.517.617-.773-21.883-9.933-38.671-15.834-46.295-15.834-2.373 0-3.904.576-4.557 1.708-2.985 5.171 14.075 19.5 28.913 30.618 2.76 2.068 5.663 4.201 8.709 6.374 19.781 14.141 45.053 30.228 72.41 46.001 27.704 15.982 54.356 29.814 76.017 39.672 21.898 9.938 38.684 15.839 46.298 15.839 2.381 0 3.912-.576 4.572-1.715 2.978-5.156-14.085-19.503-28.922-30.613zM374.459 187.602c-.668-1.155-2.158-1.708-4.572-1.708-7.613 0-24.399 5.901-46.298 15.834.225.256.43.502.617.773 21.632-9.836 38.172-15.647 45.681-15.647 2.015 0 3.264.417 3.743 1.236 1.987 3.446-8.73 14.418-28.654 29.361-2.703 2.017-5.548 4.099-8.517 6.223-19.763 14.152-45.094 30.269-72.515 46.098-27.802 16.049-54.518 29.891-76.163 39.724-21.617 9.848-38.164 15.662-45.678 15.662-2.01 0-3.259-.422-3.735-1.244-1.987-3.448 8.737-14.433 28.669-29.363 2.691-2.022 5.53-4.104 8.504-6.216-.133-.317-.256-.625-.374-.934-3.044 2.186-5.949 4.314-8.709 6.377-14.84 11.11-31.898 25.457-28.925 30.612.671 1.16 2.163 1.715 4.57 1.715 7.624 0 24.412-5.901 46.295-15.831 21.663-9.861 48.323-23.69 76.032-39.68 27.348-15.775 52.634-31.877 72.394-46.001 3.046-2.173 5.962-4.306 8.714-6.374 14.838-11.118 31.901-25.446 28.921-30.617z"/></g><g fill="#FF8E31"><circle cx="166.835" cy="217.907" r="8.187"/><path d="M374.374 200.484c0 4.531-3.674 8.197-8.189 8.197-4.531 0-8.179-3.666-8.179-8.197 0-4.516 3.651-8.179 8.179-8.179 4.518 0 8.189 3.663 8.189 8.179zM266.486 359.718c0 4.516-3.666 8.195-8.189 8.195-4.521 0-8.179-3.681-8.179-8.195 0-4.531 3.658-8.195 8.179-8.195 4.523-.002 8.189 3.664 8.189 8.195z"/></g></svg>