<svg xmlns="http://www.w3.org/2000/svg" viewBox="0 0 512 512" enable-background="new 0 0 512 512"><g><radialGradient id="a" cx="256" cy="258" r="256" gradientTransform="matrix(1 0 0 -1 0 514)" gradientUnits="userSpaceOnUse"><stop offset="0" stop-color="#04BE9E"/><stop offset="1" stop-color="#00A185"/></radialGradient><circle cx="256" cy="256" r="256" fill="url(#a)"/><path d="M337.543 228.916c-48.986-4.83-51.055-14.489-45.535-46.226s-28.979-60.715-91.762-42.086c-62.785 18.628-115.91 72.443-95.213 175.935 0 0 28.287 101.421 125.57 116.6 97.281 15.179 157.994-19.318 180.072-89.002 22.079-69.685-24.146-110.392-73.132-115.221zm-133.504-14.489c-11.621 0-21.043-9.421-21.043-21.043 0-5.381 2.023-10.289 5.346-14.01-.992 1.566-1.797 3.263-2.352 5.073 3.783-3.648 8.928-5.896 14.6-5.896 11.623 0 21.043 9.421 21.043 21.043 0 2.15-.324 4.224-.922 6.177.406-.393.793-.805 1.168-1.229-3.721 5.936-10.317 9.885-17.84 9.885z" fill="#94A5A6"/><path d="M332.713 232.365c-48.984-4.83-51.055-14.489-45.535-46.226s-28.979-60.715-91.762-42.086c-62.785 18.628-115.91 72.443-95.211 175.935 0 0 28.287 101.421 125.568 116.6s157.996-19.318 180.074-89.002c22.079-69.685-24.148-110.391-73.134-115.221zm-128.674-17.938c-11.621 0-21.043-9.421-21.043-21.043s9.422-21.043 21.043-21.043c11.623 0 21.045 9.421 21.045 21.043s-9.422 21.043-21.045 21.043z" fill="#ECF0F1"/><circle cx="365.141" cy="300.669" r="31.047" fill="#C6362B"/><circle cx="359.621" cy="297.22" r="15.869" fill="#EE483C"/><path d="M406.529 67.561l-87.41 155.065-9.014-5.083s63.629-167.676 96.424-149.982z" fill="#32495D"/><path d="M406.529 67.561l-87.41 155.065 9.246 5.211s110.281-141.38 78.164-160.276z" fill="#2A3E4F"/><path fill="#F4C342" d="M315.272 250.54l-18.03-10.163 12.873-22.838 18.03 10.163z"/><path fill="#F89B36" d="M315.272 250.54l-9.014-5.081 12.872-22.837 9.014 5.081z"/><path d="M297.23 240.382s-39.801-1.051-40.25 39.087c-.449 40.139-26.186 29.592-26.186 29.592s36.223 35.181 76.146-3.013c34.381-32.892 8.32-55.503 8.32-55.503l-18.03-10.163z" fill="#94A5A6"/><path d="M315.262 250.546l-18.031-10.164s-2.523-.066-6.305.475c2.32 2.169 24.102 24.118-8.518 55.323-16.793 16.067-32.934 19.147-45.996 17.327 11.672 8.066 40.02 21.731 70.529-7.458 34.381-32.892 8.321-55.503 8.321-55.503z" fill="#7E8C8D"/><circle cx="323.055" cy="369.663" r="31.047" fill="#F89B36"/><circle cx="317.535" cy="366.213" r="15.869" fill="#F4C342"/><circle cx="251.99" cy="394.501" r="31.047" fill="#1380B6"/><circle cx="246.472" cy="391.051" r="15.868" fill="#1C99D8"/><circle cx="177.478" cy="363.454" r="31.048" fill="#00AF67"/><circle cx="171.958" cy="360.004" r="15.868" fill="#00CA77"/></g></svg>